<mxfile host="app.diagrams.net" modified="2024-06-03T12:29:22.351Z" agent="Mozilla/5.0 (Macintosh; Intel Mac OS X 10_15_7) AppleWebKit/537.36 (KHTML, like Gecko) Chrome/124.0.0.0 Safari/537.36" version="24.3.0" etag="QO7q4_t8J1KBnqoZ2PcV" type="github">
  <diagram name="第 1 页" id="pBMWg3RM2VYV9XyBIWiX">
    <mxGraphModel>
      <root>
        <mxCell id="0" />
        <mxCell id="1" parent="0" />
      </root>
    </mxGraphModel>
  </diagram>
</mxfile>
